<svg width="28" height="28" viewBox="0 0 28 28" fill="none" xmlns="http://www.w3.org/2000/svg">
    <path
        d="M10.7143 18.1786H8C7.44772 18.1786 7 17.7109 7 17.134V10.866C7 10.2891 7.44772 9.82136 8 9.82136H10.7143L14.3177 7.28302C14.9569 6.65978 16 7.1333 16 8.04673V19.9533C16 20.8667 14.9569 21.3402 14.3177 20.717L10.7143 18.1786Z"
        stroke="#333333" stroke-width="1.5" />
    <path
        d="M19 18C19.6341 17.4747 20.1371 16.8511 20.4802 16.1648C20.8234 15.4785 21 14.7429 21 14C21 13.2571 20.8234 12.5215 20.4802 11.8352C20.1371 11.1489 19.6341 10.5253 19 10"
        stroke="#333333" stroke-width="1.5" stroke-linecap="round" />
</svg>